# xmcd
#
# Track frame offsets: 
#        150
#        14307
#        24382
#        45000
#        60990
#        72937
#        84437
#        93105
#        112592
#        123842
#        136105
#        155140
#
# Disc length: 2196 seconds
#
# Revision: 0
# Processed by: cddbd v1.5.2PL0 Copyright (c) Steve Scherf et al.
# Submitted via: ExactAudioCopy v0.99pb4
#
DISCID=7d08920c
DTITLE=Ruth Brown - Late Date With Ruth Brown
DYEAR=1959
DGENRE=Jazz
TTITLE0=It Could Happen To You (LP Version)
TTITLE1=Why Don't You Do Right (LP Version)
TTITLE2=Bewitched, Bothered and Bewildered (LP Version)
TTITLE3=I'm Just A Lucky So And So (LP Version)
TTITLE4=I Can Dream, Can't I (LP Version)
TTITLE5=You And The Night And The Music (LP Version)
TTITLE6=You'd Be So Nice To Come Home To
TTITLE7=We'll Be Together Again (LP Version)
TTITLE8=I'm Beginning To See The Light (LP Version)
TTITLE9=I Loves You, Porgy (LP Version)
TTITLE10=No One Ever Tells You (LP Version)
TTITLE11=Let's Face The Music And Dance (LP Version)
EXTD=
EXTT0=
EXTT1=
EXTT2=
EXTT3=
EXTT4=
EXTT5=
EXTT6=
EXTT7=
EXTT8=
EXTT9=
EXTT10=
EXTT11=
PLAYORDER=
